# xmcd
#
# Track frame offsets:
#	150
#	9090
#	20462
#	29632
#	41854
#	54354
#	64764
#	75119
#	85227
#	95539
#	105414
#	115928
#	124406
#	134016
#	146301
#	159599
#	171190
#	180342
#	190070
#	201144
#	215550
#	229763
#	242453
#	257577
#	269102
#	290221
#	306787
#	320355
#	333253
#	343302
#
# Disc length: 4786 seconds
#
# Revision: 2
# Processed by: cddbd v1.5.1PL2 Copyright (c) Steve Scherf et al.
# Submitted via: dBpowerAMP V4.0
#
DISCID=ae12b01e
DTITLE=Elvis Presley - History - CD2
DYEAR=2005
DGENRE=Rock and Roll
TTITLE0=That's All Right
TTITLE1=I Forgot To Remember To Forget
TTITLE2=Blue Suede Shoes
TTITLE3=I Want You, I Need You, I Love You
TTITLE4=Love Me
TTITLE5=Mean Woman Blues
TTITLE6=Loving You
TTITLE7=Treat Me Nice
TTITLE8=Wear My Ring Around Your Neck
TTITLE9=King Creole
TTITLE10=Trouble
TTITLE11=I Got Stung
TTITLE12=I Need Your Love Tonight
TTITLE13=A Mess Of Blues
TTITLE14=I Feel So Bad
TTITLE15=Little Sister
TTITLE16=Rock-A-Hula Baby
TTITLE17=Bossa Nova Baby
TTITLE18=Viva Las Vegas
TTITLE19=If I Can Dream
TTITLE20=Memories
TTITLE21=Don't Cry Daddy
TTITLE22=Kentucky Rain
TTITLE23=You Don't Have To Say You Love Me
TTITLE24=An American Trilogy
TTITLE25=Always On My Mind
TTITLE26=Promised Land
TTITLE27=Moody Blue
TTITLE28=I'm A Roustabout (bonus - previously unreleased)
TTITLE29=Rubberneckin' (bonus - Paul Oakenfold remix - radio edit)
EXTD=
EXTT0=
EXTT1=
EXTT2=
EXTT3=
EXTT4=
EXTT5=
EXTT6=
EXTT7=
EXTT8=
EXTT9=
EXTT10=
EXTT11=
EXTT12=
EXTT13=
EXTT14=
EXTT15=
EXTT16=
EXTT17=
EXTT18=
EXTT19=
EXTT20=
EXTT21=
EXTT22=
EXTT23=
EXTT24=
EXTT25=
EXTT26=
EXTT27=
EXTT28=
EXTT29=
PLAYORDER=
